<svg xmlns="http://www.w3.org/2000/svg" viewBox="0 0 32 32" aria-hidden="true">
  <rect x="7" y="15" width="18" height="13" fill="#ffffff"/>
  <rect x="7" y="13" width="2" height="2" fill="#ffffff"/>
  <rect x="11" y="13" width="2" height="2" fill="#ffffff"/>
  <rect x="15" y="13" width="2" height="2" fill="#ffffff"/>
  <rect x="19" y="13" width="2" height="2" fill="#ffffff"/>
  <rect x="23" y="13" width="2" height="2" fill="#ffffff"/>
  <rect x="13" y="7" width="6" height="21" fill="#ffffff"/>
  <rect x="13" y="5" width="2" height="2" fill="#ffffff"/>
  <rect x="17" y="5" width="2" height="2" fill="#ffffff"/>
  <rect x="14.5" y="11" width="3" height="3" fill="#1a1208"/>
  <rect x="10" y="18" width="2" height="3" fill="#1a1208"/>
  <rect x="20" y="18" width="2" height="3" fill="#1a1208"/>
  <rect x="14.5" y="22" width="3" height="6" fill="#1a1208"/>
  <rect x="15.5" y="0.5" width="0.7" height="5" fill="#1a1208"/>
  <path d="M16.2 1 L21 2.5 L16.2 4 Z" fill="#1a1208"/>
</svg>
