<svg xmlns="http://www.w3.org/2000/svg" viewBox="0 0 32 32" aria-hidden="true">
  <ellipse cx="16" cy="28" rx="13" ry="1.8" fill="#1a1208" opacity="0.55"/>
  <rect x="4" y="14" width="24" height="12" fill="#5a3a26"/>
  <polygon points="4,14 6,11 8,14" fill="#5a3a26"/>
  <polygon points="8,14 10,11 12,14" fill="#5a3a26"/>
  <polygon points="12,14 14,11 16,14" fill="#5a3a26"/>
  <polygon points="16,14 18,11 20,14" fill="#5a3a26"/>
  <polygon points="20,14 22,11 24,14" fill="#5a3a26"/>
  <polygon points="24,14 26,11 28,14" fill="#5a3a26"/>
  <polygon points="4,14 6,11 8,14 8,17 4,17" fill="#7a4d33" opacity="0.55"/>
  <polygon points="12,14 14,11 16,14 16,17 12,17" fill="#7a4d33" opacity="0.55"/>
  <polygon points="20,14 22,11 24,14 24,17 20,17" fill="#7a4d33" opacity="0.55"/>
  <line x1="4" y1="19" x2="28" y2="19" stroke="#3d251a" stroke-width="0.7"/>
  <line x1="4" y1="23" x2="28" y2="23" stroke="#3d251a" stroke-width="0.7"/>
  <rect x="13" y="18" width="6" height="8" fill="#1a1208"/>
  <rect x="13" y="18" width="6" height="1" fill="#7a4d33"/>
  <rect x="16" y="2" width="0.7" height="11" fill="#7a4d33"/>
  <path d="M16.7 3 L22 5 L16.7 7 Z" fill="#d86851"/>
  <circle cx="18.5" cy="5" r="0.7" fill="#1a1208"/>
</svg>
