<svg xmlns="http://www.w3.org/2000/svg" viewBox="0 0 32 32" aria-hidden="true">
  <path d="M4 24 L16 22 L28 24 L28 26 L16 28 L4 26 Z" fill="#3d251a"/>
  <path d="M4 24 L16 22 L16 12 L4 14 Z" fill="#f4efe5"/>
  <path d="M28 24 L16 22 L16 12 L28 14 Z" fill="#e2c275"/>
  <rect x="15.4" y="12" width="1.2" height="10" fill="#7a4d33"/>
  <line x1="6" y1="16" x2="14" y2="14.6" stroke="#5a3a26" stroke-width="0.6"/>
  <line x1="6" y1="18" x2="14" y2="16.6" stroke="#5a3a26" stroke-width="0.6"/>
  <line x1="6" y1="20" x2="14" y2="18.6" stroke="#5a3a26" stroke-width="0.6"/>
  <line x1="18" y1="14.6" x2="26" y2="16" stroke="#7a4d33" stroke-width="0.6"/>
  <line x1="18" y1="16.6" x2="26" y2="18" stroke="#7a4d33" stroke-width="0.6"/>
  <line x1="18" y1="18.6" x2="26" y2="20" stroke="#7a4d33" stroke-width="0.6"/>
  <path d="M24 4 L28 8 L21 15 L19 13 Z" fill="#598bc0"/>
  <path d="M24 4 L28 8 L26 6 Z" fill="#7da6d6"/>
</svg>
