<svg xmlns="http://www.w3.org/2000/svg" viewBox="0 0 32 32" aria-hidden="true">
  <path d="M3 14 L16 6 L29 14 Z" fill="#965a3b"/>
  <path d="M5 14 L16 7.5 L27 14 Z" fill="#b58d22"/>
  <rect x="3" y="14" width="26" height="2" fill="#7a4d33"/>
  <rect x="6" y="16" width="2.4" height="10" fill="#f4efe5"/>
  <rect x="11" y="16" width="2.4" height="10" fill="#f4efe5"/>
  <rect x="15.8" y="16" width="2.4" height="10" fill="#f4efe5"/>
  <rect x="20.6" y="16" width="2.4" height="10" fill="#f4efe5"/>
  <rect x="3" y="26" width="26" height="2" fill="#dcd2bd"/>
  <rect x="2" y="28" width="28" height="1.2" fill="#7a4d33"/>
  <line x1="11" y1="6" x2="11" y2="14" stroke="#b58d22" stroke-width="0.5"/>
  <line x1="21" y1="6" x2="21" y2="14" stroke="#b58d22" stroke-width="0.5"/>
  <path d="M11 6 L15 7 L11 8 Z" fill="#598bc0"/>
  <path d="M21 6 L17 7 L21 8 Z" fill="#51a3a1"/>
</svg>
