<svg xmlns="http://www.w3.org/2000/svg" viewBox="0 0 32 32" aria-hidden="true">
  <path d="M21 3 Q18 8 21 13 Q25 10 23 5 Q22 7 21 3 Z" fill="#d86851"/>
  <path d="M21 5 Q20 8 21 11 Q23 9 22 6 Z" fill="#e2c275"/>
  <rect x="11" y="25" width="10" height="3" fill="#5e6469"/>
  <rect x="6" y="22" width="20" height="3" fill="#3d4146"/>
  <path d="M3 17 L29 17 L31 14 L26 14 L25 19 L7 19 L6 14 L1 14 Z" fill="#5e6469"/>
  <rect x="3" y="17" width="26" height="1" fill="#8a9097"/>
  <rect x="10" y="19" width="12" height="3" fill="#646a70"/>
  <line x1="11" y1="14" x2="16" y2="4" stroke="#7a4d33" stroke-width="1.4" stroke-linecap="round"/>
  <path d="M13 5 L18 1.5 L20.5 6.5 L15.5 10 Z" fill="#3d4146"/>
  <path d="M13 5 L18 1.5 L19 3 L14 6.5 Z" fill="#8a9097"/>
</svg>
