<svg xmlns="http://www.w3.org/2000/svg" viewBox="0 0 32 32" aria-hidden="true">
  <path d="M2 24 L2 16 Q2 8 12 8 L18 8 Q22 8 22 12 L22 24 Z" fill="#3d251a"/>
  <path d="M5 24 L5 16 Q5 11 12 11 L18 11 Q19 11 19 12 L19 24 Z" fill="#1a1208"/>
  <ellipse cx="12" cy="22" rx="5" ry="1.4" fill="#b58d22"/>
  <ellipse cx="12" cy="20" rx="4" ry="1.2" fill="#c9a445"/>
  <ellipse cx="12" cy="18" rx="3" ry="1" fill="#e2c275"/>
  <line x1="2" y1="26" x2="30" y2="26" stroke="#5a3a26" stroke-width="1.2"/>
  <rect x="22" y="20" width="8" height="5" fill="#5a3a26"/>
  <rect x="22" y="20" width="8" height="1.5" fill="#b58d22"/>
  <circle cx="24" cy="27" r="1.4" fill="#3d251a"/>
  <circle cx="28" cy="27" r="1.4" fill="#3d251a"/>
  <path d="M14 14 L14.4 12.8 L14.8 14 L16 14.4 L14.8 14.8 L14.4 16 L14 14.8 L12.8 14.4 Z" fill="#f4efe5" opacity="0.85"/>
</svg>
