<svg xmlns="http://www.w3.org/2000/svg" viewBox="0 0 32 32" aria-hidden="true">
  <path d="M3 18 L14 9 L25 18 Z" fill="#5a3a26"/>
  <rect x="5" y="18" width="18" height="9" fill="#7a4d33"/>
  <line x1="5" y1="21" x2="23" y2="21" stroke="#5a3a26" stroke-width="0.6"/>
  <line x1="5" y1="24" x2="23" y2="24" stroke="#5a3a26" stroke-width="0.6"/>
  <rect x="12" y="20" width="4" height="7" fill="#3d251a"/>
  <circle cx="25" cy="22" r="4" fill="#b58d22"/>
  <circle cx="25" cy="22" r="1.2" fill="#5a3a26"/>
  <g fill="#b58d22">
    <path d="M25 17 L25.6 18.6 L24.4 18.6 Z"/>
    <path d="M29.5 22.3 L27.9 22.9 L27.9 21.7 Z"/>
    <path d="M25 27.1 L24.4 25.5 L25.6 25.5 Z"/>
    <path d="M20.5 22.3 L22.1 21.7 L22.1 22.9 Z"/>
    <path d="M28.4 18.9 L27.2 19.5 L27.4 18.3 Z"/>
    <path d="M28.4 25.5 L27.4 26.1 L27.2 24.9 Z"/>
    <path d="M21.6 18.9 L22.8 18.3 L22.6 19.5 Z"/>
    <path d="M21.6 25.5 L22.6 24.9 L22.8 26.1 Z"/>
  </g>
</svg>
